<svg width="24" height="24" viewBox="0 0 24 24" fill="none" xmlns="http://www.w3.org/2000/svg">
<g id="Iconly/Regular/Light/Buy">
<g id="Buy">
<path id="Stroke 1" d="M2.75012 3.25003L4.83012 3.61003L5.79312 15.083C5.87012 16.02 6.65312 16.739 7.59312 16.736H18.5021C19.3991 16.738 20.1601 16.078 20.2871 15.19L21.2361 8.63203C21.3421 7.89903 20.8331 7.21903 20.1011 7.11303C20.0371 7.10403 5.16412 7.09903 5.16412 7.09903" stroke="black" stroke-width="1.5" stroke-linecap="round" stroke-linejoin="round"/>
<path id="Stroke 3" d="M14.1251 10.7949H16.8981" stroke="black" stroke-width="1.5" stroke-linecap="round" stroke-linejoin="round"/>
<path id="Stroke 5" fill-rule="evenodd" clip-rule="evenodd" d="M7.15447 20.2026C7.45547 20.2026 7.69847 20.4466 7.69847 20.7466C7.69847 21.0476 7.45547 21.2916 7.15447 21.2916C6.85347 21.2916 6.61047 21.0476 6.61047 20.7466C6.61047 20.4466 6.85347 20.2026 7.15447 20.2026Z" fill="black" stroke="black" stroke-width="1.5" stroke-linecap="round" stroke-linejoin="round"/>
<path id="Stroke 7" fill-rule="evenodd" clip-rule="evenodd" d="M18.4347 20.2026C18.7357 20.2026 18.9797 20.4466 18.9797 20.7466C18.9797 21.0476 18.7357 21.2916 18.4347 21.2916C18.1337 21.2916 17.8907 21.0476 17.8907 20.7466C17.8907 20.4466 18.1337 20.2026 18.4347 20.2026Z" fill="black" stroke="black" stroke-width="1.5" stroke-linecap="round" stroke-linejoin="round"/>
</g>
</g>
</svg>
