<svg width="25" height="25" viewBox="0 0 25 25" fill="none" xmlns="http://www.w3.org/2000/svg">
<path fill-rule="evenodd" clip-rule="evenodd" d="M20.325 6.37847H16.184C16.143 5.72447 15.962 4.80247 15.311 4.05447C14.623 3.26347 13.593 2.86147 12.249 2.86147C10.906 2.86147 9.87605 3.26347 9.18805 4.05447C8.53705 4.80247 8.35505 5.72447 8.31405 6.37847H4.17505C3.76105 6.37847 3.42505 6.71447 3.42505 7.12847C3.42505 7.54247 3.76105 7.87847 4.17505 7.87847H20.325C20.739 7.87847 21.075 7.54247 21.075 7.12847C21.075 6.71447 20.739 6.37847 20.325 6.37847Z" fill="black"/>
<path opacity="0.4" fill-rule="evenodd" clip-rule="evenodd" d="M19.3487 10.2018C19.3487 9.9258 19.1247 9.7018 18.8487 9.7018H5.65272C5.37572 9.7018 5.15272 9.9258 5.15272 10.2018C5.15272 11.1988 5.13472 12.1278 5.11772 12.9888C5.04372 16.7378 4.99472 19.2148 6.50972 20.7598C7.58572 21.8568 9.35272 22.3468 12.2397 22.3468C15.1297 22.3468 16.8997 21.8558 17.9787 20.7568C19.5007 19.2048 19.4527 16.7158 19.3817 12.9458C19.3657 12.0968 19.3487 11.1818 19.3487 10.2018Z" fill="black"/>
</svg>
