<svg width="24" height="24" viewBox="0 0 24 24" fill="none" xmlns="http://www.w3.org/2000/svg">
<path fill-rule="evenodd" clip-rule="evenodd" d="M7.33377 3.8187C8.1376 3.75455 8.90071 3.43846 9.51447 2.91542C10.9467 1.69486 13.0533 1.69486 14.4855 2.91542C15.0993 3.43846 15.8624 3.75455 16.6662 3.8187C18.5421 3.96839 20.0316 5.45794 20.1813 7.33377C20.2455 8.1376 20.5615 8.90071 21.0846 9.51447C22.3051 10.9467 22.3051 13.0533 21.0846 14.4855C20.5615 15.0993 20.2455 15.8624 20.1813 16.6662C20.0316 18.5421 18.5421 20.0316 16.6662 20.1813C15.8624 20.2455 15.0993 20.5615 14.4855 21.0846C13.0533 22.3051 10.9467 22.3051 9.51447 21.0846C8.90071 20.5615 8.1376 20.2455 7.33377 20.1813C5.45794 20.0316 3.96839 18.5421 3.8187 16.6662C3.75455 15.8624 3.43846 15.0993 2.91542 14.4855C1.69486 13.0533 1.69486 10.9467 2.91542 9.51447C3.43846 8.90071 3.75455 8.1376 3.8187 7.33377C3.96839 5.45794 5.45794 3.96839 7.33377 3.8187ZM16.5303 8.53033C16.8232 8.23744 16.8232 7.76256 16.5303 7.46967C16.2374 7.17678 15.7626 7.17678 15.4697 7.46967L7.46967 15.4697C7.17678 15.7626 7.17678 16.2374 7.46967 16.5303C7.76256 16.8232 8.23744 16.8232 8.53033 16.5303L16.5303 8.53033ZM9 7.75C8.30964 7.75 7.75 8.30964 7.75 9C7.75 9.69036 8.30964 10.25 9 10.25C9.69036 10.25 10.25 9.69036 10.25 9C10.25 8.30964 9.69036 7.75 9 7.75ZM15 13.75C14.3096 13.75 13.75 14.3096 13.75 15C13.75 15.6904 14.3096 16.25 15 16.25C15.6904 16.25 16.25 15.6904 16.25 15C16.25 14.3096 15.6904 13.75 15 13.75Z" fill="#FF5944"/>
</svg>
