<svg width="24" height="24" viewBox="0 0 24 24" fill="none" xmlns="http://www.w3.org/2000/svg">
<g id="Iconly/Regular/Bulk/Edit">
<g id="Edit">
<path id="Fill 1" opacity="0.4" d="M19.9925 18.9534H14.2982C13.7426 18.9534 13.2908 19.4124 13.2908 19.9768C13.2908 20.5422 13.7426 21.0001 14.2982 21.0001H19.9925C20.548 21.0001 20.9999 20.5422 20.9999 19.9768C20.9999 19.4124 20.548 18.9534 19.9925 18.9534Z" fill="black"/>
<path id="Fill 3" d="M10.309 6.904L15.7049 11.2641C15.835 11.3684 15.8573 11.5597 15.7557 11.693L9.35874 20.0283C8.95662 20.5433 8.36402 20.8346 7.72908 20.8453L4.23696 20.8883C4.05071 20.8905 3.88775 20.7615 3.84542 20.5766L3.05175 17.1259C2.91419 16.4917 3.05175 15.836 3.45388 15.3307L9.88256 6.9556C9.98627 6.82123 10.1778 6.79758 10.309 6.904Z" fill="black"/>
<path id="Fill 5" opacity="0.4" d="M18.1205 8.66556L17.0803 9.96413C16.9755 10.0963 16.7872 10.1178 16.657 10.0125C15.3924 8.98913 12.1543 6.36297 11.2559 5.63521C11.1247 5.52771 11.1067 5.33637 11.2125 5.20307L12.2157 3.95718C13.1257 2.78546 14.7131 2.67796 15.9935 3.69919L17.4644 4.87091C18.0676 5.34389 18.4698 5.96738 18.6073 6.62311C18.7661 7.34442 18.5967 8.05283 18.1205 8.66556Z" fill="black"/>
</g>
</g>
</svg>
