<svg width="24" height="24" viewBox="0 0 24 24" fill="none" xmlns="http://www.w3.org/2000/svg">
<g id="Iconly/Regular/Bulk/Heart">
<g id="Heart">
<path id="Path_34179" opacity="0.4" d="M11.7759 21.8376C9.49286 20.4274 7.37056 18.7647 5.44782 16.8797C4.09044 15.5339 3.0538 13.8906 2.4171 12.0754C1.27947 8.53535 2.60374 4.4896 6.30105 3.28852C8.25256 2.67565 10.375 3.05188 12.007 4.29996C13.6396 3.05327 15.7613 2.67717 17.7129 3.28852C21.4102 4.4896 22.7434 8.53535 21.6058 12.0754C20.9742 13.8889 19.9438 15.532 18.5928 16.8797C16.6683 18.7626 14.5463 20.4252 12.2647 21.8376L12.0159 22.0001L11.7759 21.8376Z" fill="black"/>
<path id="Path_34178" d="M12.0109 22.0001L11.776 21.8376C9.49013 20.4275 7.36487 18.7648 5.43902 16.8797C4.0752 15.5358 3.03238 13.8923 2.39052 12.0754C1.26177 8.53535 2.58605 4.4896 6.28335 3.28852C8.23486 2.67565 10.3853 3.05217 12.0109 4.3107V22.0001Z" fill="black"/>
<path id="Path_34180" d="M18.2304 9.99935C18.0296 9.98641 17.8425 9.88602 17.7131 9.72169C17.5836 9.55736 17.5232 9.34352 17.5459 9.13028C17.5677 8.42792 17.168 7.78863 16.5517 7.53989C16.1609 7.43321 15.9243 7.00999 16.022 6.59261C16.1148 6.18194 16.4993 5.92659 16.8858 6.01903C16.9346 6.02712 16.9816 6.0448 17.0244 6.07117C18.2601 6.5467 19.0601 7.82653 18.9965 9.22588C18.9944 9.43797 18.9117 9.6401 18.7673 9.78593C18.6229 9.93176 18.4291 10.0088 18.2304 9.99935Z" fill="black"/>
</g>
</g>
</svg>
