<svg width="24" height="24" viewBox="0 0 24 24" fill="none" xmlns="http://www.w3.org/2000/svg">
<g id="Iconly/Regular/Bulk/Hide">
<g id="Hide">
<path id="Fill 1" opacity="0.4" fill-rule="evenodd" clip-rule="evenodd" d="M11.9902 3.88202H12C13.3951 3.88202 14.7512 4.21675 16 4.84585L12.7415 8.1351C12.5073 8.09572 12.2537 8.06618 12 8.06618C9.8439 8.06618 8.09756 9.82845 8.09756 12.0042C8.09756 12.2602 8.12683 12.5162 8.16585 12.7524L4.5561 16.3951C3.58049 15.2531 2.73171 13.8738 2.05854 12.2897C1.98049 12.1125 1.98049 11.8959 2.05854 11.7089C4.14634 6.80601 7.86341 3.88202 11.9902 3.88202ZM18.4293 6.55004C19.8439 7.84959 21.0439 9.60201 21.9415 11.7089C22.0195 11.8959 22.0195 12.1125 21.9415 12.2897C19.8537 17.1926 16.1366 20.1264 12 20.1264H11.9902C10.1073 20.1264 8.30244 19.5062 6.71219 18.374L9.80488 15.2531C10.4293 15.6754 11.1902 15.9324 12 15.9324C14.1463 15.9324 15.8927 14.1701 15.8927 12.0042C15.8927 11.1871 15.639 10.4192 15.2195 9.78907L18.4293 6.55004Z" fill="black"/>
<path id="Combined Shape" fill-rule="evenodd" clip-rule="evenodd" d="M18.4293 6.54964L20.205 4.75783C20.4976 4.47232 20.4976 3.99976 20.205 3.71425C19.922 3.42875 19.4635 3.42875 19.1708 3.71425L18.2537 4.63969C18.244 4.65938 18.2245 4.67907 18.205 4.69876C18.1952 4.71845 18.1757 4.73814 18.1562 4.75783L17.2879 5.63503L14.1952 8.75592L3.72691 19.3187L3.69764 19.3581C3.50252 19.6436 3.54154 20.0384 3.78545 20.2845C3.92203 20.4312 4.11715 20.5001 4.30252 20.5001C4.48789 20.5001 4.67325 20.4312 4.81959 20.2845L15.2196 9.78867L18.4293 6.54964ZM12.0002 14.4556C13.3368 14.4556 14.4294 13.353 14.4294 12.0042C14.4294 11.5907 14.3319 11.1969 14.1563 10.8622L10.8685 14.18C11.2002 14.3572 11.5904 14.4556 12.0002 14.4556Z" fill="black"/>
</g>
</g>
</svg>
