<svg width="25" height="24" viewBox="0 0 25 24" fill="none" xmlns="http://www.w3.org/2000/svg">
<path opacity="0.4" fill-rule="evenodd" clip-rule="evenodd" d="M19.8774 13.9624C19.0304 12.0994 19.0524 11.3984 19.0914 10.1244C19.1014 9.82336 19.1114 9.49636 19.1114 9.12136C19.1114 6.14435 16.9824 1.95135 12.2504 1.95135C7.51836 1.95135 5.38936 6.14435 5.38936 9.12136C5.38936 9.49536 5.39936 9.82336 5.40936 10.1244C5.44836 11.3984 5.46936 12.0994 4.61336 13.9874C4.24736 14.9314 4.29136 15.7464 4.74636 16.4104C5.83836 18.0084 8.99836 18.2284 12.2504 18.2284C15.5024 18.2284 18.6624 18.0084 19.7544 16.4104C20.2104 15.7464 20.2544 14.9314 19.8774 13.9624Z" fill="black"/>
<path fill-rule="evenodd" clip-rule="evenodd" d="M14.9474 19.2409C13.3164 19.4219 11.5484 19.4209 9.53838 19.2389C9.23738 19.2149 8.93938 19.3739 8.80138 19.6489C8.66238 19.9249 8.70638 20.2559 8.91138 20.4859C9.81138 21.4929 10.9954 22.0489 12.2454 22.0489H12.2474C13.5004 22.0489 14.6874 21.4939 15.5894 20.4859C15.7964 20.2549 15.8394 19.9189 15.6974 19.6419C15.5544 19.3669 15.2604 19.2129 14.9474 19.2409Z" fill="black"/>
</svg>
