<svg width="24" height="24" viewBox="0 0 24 24" fill="none" xmlns="http://www.w3.org/2000/svg">
<g id="Iconly/Regular/Bulk/Notification">
<g id="Notification">
<path id="Fill 1" d="M19.7695 11.6455C19.039 10.7924 18.7071 10.0532 18.7071 8.79728V8.37025C18.7071 6.73366 18.3304 5.67919 17.5115 4.62472C16.2493 2.98711 14.1244 2.00012 12.0442 2.00012H11.9558C9.91935 2.00012 7.86106 2.94179 6.577 4.51292C5.71333 5.58855 5.29293 6.68834 5.29293 8.37025V8.79728C5.29293 10.0532 4.98284 10.7924 4.23049 11.6455C3.67691 12.2739 3.5 13.0816 3.5 13.9558C3.5 14.831 3.78723 15.6599 4.36367 16.3337C5.11602 17.1414 6.17846 17.657 7.26375 17.7467C8.83505 17.926 10.4063 17.9934 12.0005 17.9934C13.5937 17.9934 15.165 17.8806 16.7372 17.7467C17.8215 17.657 18.884 17.1414 19.6363 16.3337C20.2118 15.6599 20.5 14.831 20.5 13.9558C20.5 13.0816 20.3231 12.2739 19.7695 11.6455Z" fill="black"/>
<path id="Fill 4" opacity="0.4" d="M14.0088 19.2285C13.5088 19.1217 10.4627 19.1217 9.96275 19.2285C9.53539 19.3272 9.07324 19.5568 9.07324 20.0604C9.09809 20.5408 9.37935 20.9648 9.76895 21.2337L9.76795 21.2347C10.2718 21.6275 10.8632 21.8772 11.4824 21.9669C11.8123 22.0122 12.1482 22.0102 12.4901 21.9669C13.1083 21.8772 13.6997 21.6275 14.2036 21.2347L14.2026 21.2337C14.5922 20.9648 14.8734 20.5408 14.8983 20.0604C14.8983 19.5568 14.4361 19.3272 14.0088 19.2285Z" fill="black"/>
</g>
</g>
</svg>
