<svg width="24" height="24" viewBox="0 0 24 24" fill="none" xmlns="http://www.w3.org/2000/svg">
<g id="Iconly/Regular/Bulk/Show">
<g id="Show">
<path id="Fill 1" opacity="0.4" fill-rule="evenodd" clip-rule="evenodd" d="M17.7366 6.04618C19.4439 7.364 20.8976 9.29467 21.9415 11.7092C22.0195 11.8925 22.0195 12.1068 21.9415 12.2813C19.8537 17.1104 16.1366 20.0001 12 20.0001H11.9902C7.86341 20.0001 4.14634 17.1104 2.05854 12.2813C1.98049 12.1068 1.98049 11.8925 2.05854 11.7092C4.14634 6.87915 7.86341 4.00012 11.9902 4.00012H12C14.0683 4.00012 16.0293 4.7177 17.7366 6.04618ZM8.09756 12.0001C8.09756 14.1335 9.8439 15.8692 12 15.8692C14.1463 15.8692 15.8927 14.1335 15.8927 12.0001C15.8927 9.85709 14.1463 8.12133 12 8.12133C9.8439 8.12133 8.09756 9.85709 8.09756 12.0001Z" fill="black"/>
<path id="Fill 4" d="M14.431 11.997C14.431 13.3255 13.3384 14.4116 12.0018 14.4116C10.6554 14.4116 9.56274 13.3255 9.56274 11.997C9.56274 11.8322 9.58226 11.678 9.61152 11.5228H9.66031C10.7432 11.5228 11.6213 10.6695 11.6603 9.60188C11.7676 9.58345 11.8847 9.57278 12.0018 9.57278C13.3384 9.57278 14.431 10.6588 14.431 11.997Z" fill="black"/>
</g>
</g>
</svg>
